<?xml version="1.0" encoding="UTF-8"?>
<svg id="Layer_1" data-name="Layer 1" xmlns="http://www.w3.org/2000/svg" xmlns:xlink="http://www.w3.org/1999/xlink" viewBox="0 0 250 250">
  <defs>
    <style>
      .cls-1 {
        fill: #c93733;
      }

      .cls-2 {
        fill: url(#New_Pattern_Swatch_1);
      }

      .cls-3 {
        fill: none;
      }
    </style>
    <pattern id="New_Pattern_Swatch_1" data-name="New Pattern Swatch 1" x="0" y="0" width="88.4" height="77.94" patternTransform="translate(-2157.68 -827.53)" patternUnits="userSpaceOnUse" viewBox="0 0 88.4 77.94">
      <g>
        <rect class="cls-3" y="0" width="88.4" height="77.94"/>
        <rect class="cls-1" x="0" y="0" width="88.4" height="77.94"/>
      </g>
    </pattern>
  </defs>
  <path class="cls-2" d="M222.02,82.36l-.03-.05v-.05s.03-.1.05-.18c.01-.04.02-.07.02-.11v-10.58c0-.64-.32-1.23-.87-1.58-.53-.34-1.23-.38-1.8-.12l-5.34,2.5-.07-.13c-1.71-2.9-4.48-4.63-7.41-4.63s-5.7,1.73-7.42,4.63l-.07.12-5.27-2.48s-.11-.04-.13-.04c-.09-.04-.18-.06-.27-.09-.07-.02-.13-.03-.21-.04-.13-.02-.3-.02-.49,0-.06,0-.12.02-.17.03-.09.02-.18.05-.27.09-.03,0-.06.02-.09.03l-5.34,2.5-.07-.13c-1.71-2.9-4.48-4.63-7.41-4.63s-5.7,1.73-7.42,4.63l-.07.12-5.32-2.5-.08-.03c-.09-.04-.17-.06-.26-.09-.07-.02-.14-.03-.22-.04-.11-.01-.29-.02-.48,0-.06,0-.11.02-.17.03-.09.02-.17.05-.27.08-.03,0-.06.02-.1.03l-5.34,2.5-.07-.13c-1.71-2.9-4.48-4.63-7.41-4.63s-5.7,1.73-7.42,4.63l-.07.12-5.32-2.5-.08-.03c-.09-.03-.17-.06-.26-.08-.07-.02-.15-.03-.22-.04-.11-.01-.3-.02-.48,0-.06,0-.11.02-.17.03-.09.02-.17.05-.26.08-.03,0-.07.02-.1.03l-5.34,2.5-.07-.13c-1.71-2.9-4.48-4.63-7.41-4.63s-5.7,1.73-7.42,4.63l-.07.13-5.33-2.5-.08-.02c-.09-.04-.18-.06-.27-.09-.07-.02-.13-.03-.2-.04-.13-.02-.3-.02-.48,0-.06,0-.12.02-.17.03-.09.02-.18.05-.37.12l-5.34,2.5-.07-.13c-1.71-2.9-4.48-4.63-7.41-4.63s-5.7,1.73-7.42,4.63l-.07.13-5.34-2.51-.07-.02c-.08-.03-.17-.06-.25-.08-.07-.02-.15-.03-.22-.04-.11-.01-.29-.02-.48,0-.06,0-.11.02-.17.03-.09.02-.17.04-.26.08-.03,0-.07.02-.1.03l-5.34,2.5-.07-.13c-1.71-2.9-4.48-4.63-7.41-4.63s-5.7,1.73-7.42,4.63l-.07.12-5.32-2.5-.08-.03c-.09-.04-.17-.06-.26-.08-.07-.02-.15-.03-.22-.04-.11-.01-.29-.02-.48,0-.06,0-.11.02-.17.03-.09.02-.17.05-.26.08-.03,0-.07.02-.1.03l-5.34,2.5-.07-.13c-1.71-2.9-4.48-4.63-7.41-4.63s-5.7,1.73-7.42,4.63l-.07.12-5.33-2.5c-.57-.27-1.26-.23-1.8.12-.54.34-.87.94-.87,1.58v10.58c0,.26.07.53.2.81l.02.05-.05.19c-.03.1-.05.17-.05.25v97.42c0,1.03.84,1.87,1.87,1.87h190.7c1.03,0,1.87-.84,1.87-1.87v-97.42c0-.29-.08-.58-.27-.9ZM170.9,121.67v-5.07h29v5.07h-29ZM184.89,129.41c-.35.11-8.58,2.7-13.71,7.77l-.27.27v-12.04h29v11.96l-.27-.27c-5.14-5.03-13.29-7.59-13.63-7.7-.36-.11-.75-.11-1.11,0ZM185.4,133.18l.05-.02.05.02c4.96,1.68,13.58,6.02,14.41,11.57v34.06h-29v-33.17c0-5.94,9.11-10.62,14.49-12.46ZM154.72,111.58v67.24h-6.48v-67.24h6.48ZM144.5,130.65l-.29-.43c-6.69-9.69-19.36-14.76-19.89-14.97-.22-.09-.45-.13-.69-.13h0c-.23,0-.47.04-.69.13-.54.21-13.21,5.29-19.89,14.97l-.29.43v-19.07h41.75v19.07ZM123.56,119.06s0,0,0,0l.06-.03.07.03c3.48,1.55,20.81,9.94,20.81,23.39v36.36h-41.75v-36.36c0-13.45,17.34-21.85,20.81-23.39ZM99,111.58v67.24h-6.48v-67.24h6.48ZM47.55,121.67v-5.07h29v5.07h-29ZM61.53,129.41c-.35.11-8.59,2.71-13.71,7.77l-.27.27v-12.04h29v11.96l-.27-.27c-5.14-5.03-13.29-7.59-13.63-7.7-.36-.11-.75-.11-1.11,0ZM62.04,133.18l.05-.02.05.02c4.96,1.68,13.58,6.02,14.41,11.57v34.06h-29v-33.17c0-5.94,9.11-10.62,14.49-12.46ZM97.66,71.19c2.01,0,3.91,1.62,4.82,4.14.18.49.56.89,1.04,1.09.48.2,1.04.19,1.51-.03l4.36-2.04v5.75h-23.47v-5.75l4.34,2.04c.47.22,1.03.24,1.5.04.48-.2.87-.59,1.05-1.08.94-2.52,2.84-4.15,4.85-4.15ZM152.12,71.19c2.01,0,3.9,1.62,4.82,4.14.18.49.56.89,1.04,1.09.47.2,1.04.19,1.51-.03l4.36-2.04v5.75h-23.47v-5.75l4.33,2.04c.47.22,1.03.24,1.5.04.48-.2.87-.59,1.05-1.08.94-2.52,2.84-4.15,4.85-4.15ZM190.34,85.14v11.96h-9.78v-11.96h9.78ZM128.51,85.14v12.26h-9.79v-12.26h9.79ZM57.2,97.28v-12.14h9.78v12.14h-9.78ZM70.43,71.19c2.01,0,3.9,1.62,4.82,4.14.18.49.56.89,1.04,1.09.48.2,1.04.19,1.51-.03l4.36-2.04v5.75h-23.47v-5.75l4.33,2.04c.47.22,1.03.23,1.5.04.48-.2.87-.59,1.05-1.08.94-2.52,2.84-4.15,4.85-4.15ZM114.99,96.91s.02.07.02.12l.02.18h-44.36l.02-.18c.02-.05.03-.11.03-.16v-11.72h44.26v11.67s0,.07.01.11ZM124.89,71.19c2.01,0,3.91,1.62,4.82,4.14.18.49.56.89,1.04,1.09.48.2,1.04.19,1.51-.03l4.36-2.04v5.75h-23.47v-5.75l4.34,2.04c.47.22,1.03.23,1.5.04.48-.2.87-.59,1.05-1.08.94-2.52,2.84-4.15,4.85-4.15ZM176.82,96.91s.02.07.02.12l.02.18h-44.66l.02-.18c.02-.05.03-.11.03-.16v-11.72h44.55v11.67s0,.07.01.11ZM179.34,71.19c2.01,0,3.91,1.62,4.82,4.14.18.49.56.89,1.04,1.09.48.2,1.04.19,1.51-.03l4.36-2.04v5.75h-23.47v-5.75l4.34,2.04c.47.22,1.03.24,1.5.04.48-.2.87-.59,1.05-1.08.94-2.52,2.84-4.15,4.85-4.15ZM206.57,71.19c2.01,0,3.91,1.63,4.82,4.14.18.49.56.89,1.04,1.09.48.2,1.03.18,1.51-.03l4.38-2.05v5.76h-23.49v-5.75l4.34,2.04c.47.22,1.03.23,1.5.04.48-.2.86-.59,1.05-1.08.94-2.52,2.84-4.15,4.85-4.15ZM194.03,97.2l.02-.18c.02-.05.03-.11.03-.16v-11.72h24.46v12.07h-24.52ZM43.2,71.19c2.01,0,3.91,1.62,4.82,4.14.18.49.56.89,1.04,1.09.48.2,1.04.19,1.51-.03l4.36-2.04v5.75h-23.49v-5.76l4.35,2.04c.47.22,1.03.24,1.5.04.48-.2.87-.59,1.05-1.08.94-2.52,2.84-4.15,4.85-4.15ZM53.46,96.91s.02.07.02.12l.02.18h-21.92v-12.07h21.86v11.67s0,.07.01.11ZM203.69,145.13c-.02-.1-.03-.21-.04-.33v-30.06c0-1.03-.84-1.87-1.87-1.87h-32.75c-1.03,0-1.87.84-1.87,1.87v64.08h-8.7v-69.11c0-1.03-.84-1.87-1.87-1.87h-65.94c-1.03,0-1.87.84-1.87,1.87v69.11h-8.49v-11.1s.03-.09.04-.14c.03-.1.04-.17.04-.24v-21.7c0-.17-.02-.33-.05-.51-.01-.1-.03-.21-.04-.33v-30.06c0-1.03-.84-1.87-1.87-1.87h-32.75c-1.03,0-1.87.84-1.87,1.87v64.08h-12.21v-77.87h186.96v77.87h-14.9v-11.08s.03-.13.04-.16c.03-.1.04-.16.04-.24v-21.7c0-.16-.02-.32-.05-.51Z"/>
</svg>