<?xml version="1.0" encoding="UTF-8"?>
<svg id="Layer_1" data-name="Layer 1" xmlns="http://www.w3.org/2000/svg" xmlns:xlink="http://www.w3.org/1999/xlink" viewBox="0 0 250 250">
  <defs>
    <style>
      .cls-1 {
        fill: #c93733;
      }

      .cls-2 {
        fill: url(#New_Pattern_Swatch_1);
      }

      .cls-3 {
        fill: none;
      }
    </style>
    <pattern id="New_Pattern_Swatch_1" data-name="New Pattern Swatch 1" x="0" y="0" width="88.4" height="77.94" patternTransform="translate(-1857.21 -827.53)" patternUnits="userSpaceOnUse" viewBox="0 0 88.4 77.94">
      <g>
        <rect class="cls-3" y="0" width="88.4" height="77.94"/>
        <rect class="cls-1" x="0" y="0" width="88.4" height="77.94"/>
      </g>
    </pattern>
  </defs>
  <path class="cls-2" d="M178.26,91.34h-2.33v-6.85c0-.15-.05-.28-.08-.41.03-.14.08-.26.08-.41v-7.8c0-.98-.79-1.78-1.78-1.78h-15.34v-8.04c0-.98-.79-1.78-1.78-1.78h-8.38v-11.44c0-.58-.28-1.12-.76-1.46-.48-.33-1.08-.41-1.63-.21l-9.87,3.59c-2.44-3.87-6.75-6.29-11.39-6.29s-8.95,2.42-11.42,6.29l-9.84-3.59c-.55-.2-1.15-.12-1.63.21-.48.33-.76.88-.76,1.46v11.44h-8.39c-.98,0-1.78.79-1.78,1.78v8.04h-15.34c-.98,0-1.78.79-1.78,1.78v7.8c0,.15.05.28.08.41-.03.14-.08.26-.08.41v6.85h-2.33c-.57,0-1.11.27-1.44.74-.33.46-.43,1.06-.25,1.6l4.02,12.17v93.9c0,.98.8,1.78,1.78,1.78h34.4s0,0,0,0c.98,0,1.78-.79,1.78-1.78v-49.89c0-7.15,5.81-12.96,12.96-12.96s12.96,5.82,12.96,12.96v8.3s0,.01,0,.02,0,.01,0,.02v29.86s0,.01,0,.02,0,.01,0,.02v11.66c0,.98.79,1.78,1.78,1.78,0,0,0,0,0,0h34.39c.98,0,1.78-.79,1.78-1.78v-93.9l4.02-12.17c.18-.54.09-1.14-.25-1.6-.33-.46-.87-.74-1.44-.74ZM104.92,55.38l8.88,3.24c.85.31,1.82-.08,2.21-.9,1.66-3.46,5.19-5.69,9-5.69s7.34,2.23,8.95,5.68c.39.83,1.36,1.23,2.22.91l8.92-3.24v8.88h-40.18v-8.88ZM94.75,67.83h60.51v5.44h-60.51v-5.44ZM77.63,77.65h94.74v4.25h-94.74v-4.25ZM77.63,86.27h94.74v4.25h-94.74v-4.25ZM96.14,197.97h-18.51v-8.12h18.51v8.12ZM96.14,186.3h-18.51v-26.34h18.51v26.34ZM108.48,197.97h-8.79v-8.12h8.79v8.12ZM108.48,186.3h-8.79v-26.34h8.79v26.34ZM150.31,197.97h-8.8v-8.12h8.8v8.12ZM150.31,186.3h-8.8v-26.34h8.8v26.34ZM150.31,156.4h-8.8v-6.54c0-9.11-7.41-16.52-16.52-16.52s-16.52,7.41-16.52,16.52v6.54h-8.79v-6.55c0-11.63,8.18-21.82,19.33-24.54v1.9c0,.98.8,1.78,1.78,1.78h8.39c.98,0,1.78-.79,1.78-1.78v-1.9c11.16,2.71,19.34,12.91,19.34,24.54v6.55ZM122.58,125.42v-5.27h4.84v5.27h-4.84ZM172.37,197.97h-18.5v-8.12h18.5v8.12ZM172.37,186.3h-18.5v-26.34h18.5v26.34ZM172.37,156.4h-18.5v-6.55c0-13.55-9.74-25.38-22.9-28.17v-3.3c0-.98-.8-1.78-1.78-1.78h-8.39c-.98,0-1.78.79-1.78,1.78v3.31c-13.15,2.79-22.89,14.62-22.89,28.17v6.55h-18.51v-49.06h94.74v49.06ZM172.86,103.79h-95.72l-2.94-8.89h101.59l-2.94,8.89Z"/>
  <path class="cls-2" d="M93.06,129.47c3.68,0,6.68-3,6.68-6.68s-3-6.68-6.68-6.68-6.68,3-6.68,6.68,3,6.68,6.68,6.68ZM93.06,119.66c1.72,0,3.13,1.4,3.13,3.13s-1.4,3.13-3.13,3.13-3.13-1.4-3.13-3.13,1.4-3.13,3.13-3.13Z"/>
  <path class="cls-2" d="M156.95,129.47c3.68,0,6.68-3,6.68-6.68s-3-6.68-6.68-6.68-6.68,3-6.68,6.68,3,6.68,6.68,6.68ZM156.95,119.66c1.72,0,3.13,1.4,3.13,3.13s-1.4,3.13-3.13,3.13-3.13-1.4-3.13-3.13,1.4-3.13,3.13-3.13Z"/>
</svg>