<?xml version="1.0" encoding="UTF-8"?>
<svg id="Layer_2" xmlns="http://www.w3.org/2000/svg" version="1.1" viewBox="0 0 250 250">
  <!-- Generator: Adobe Illustrator 29.2.1, SVG Export Plug-In . SVG Version: 2.1.0 Build 116)  -->
  <defs>
    <style>
      .st0 {
        fill: #fff;
      }
    </style>
  </defs>
  <g id="Layer_1-2">
    <g>
      <path class="st0" d="M157.1,157.7h-13.4c-1.8,0-3.3,1.5-3.3,3.3s1.5,3.3,3.3,3.3h13.4c1.8,0,3.3-1.5,3.3-3.3s-1.5-3.3-3.3-3.3Z"/>
      <path class="st0" d="M53.3,183.9v-12.6c0-1.8-1.5-3.3-3.3-3.3s-3.3,1.5-3.3,3.3v12.6c0,1.8,1.5,3.3,3.3,3.3s3.3-1.5,3.3-3.3Z"/>
      <path class="st0" d="M166.3,38.6h22.5c1.8,0,3.3-1.5,3.3-3.3s-1.5-3.3-3.3-3.3h-22.5c-1.8,0-3.3,1.5-3.3,3.3s1.5,3.3,3.3,3.3Z"/>
      <path class="st0" d="M166.3,52.3h22.5c1.8,0,3.3-1.5,3.3-3.3s-1.5-3.3-3.3-3.3h-22.5c-1.8,0-3.3,1.5-3.3,3.3s1.5,3.3,3.3,3.3Z"/>
      <path class="st0" d="M166.3,66.1h10.8c1.8,0,3.3-1.5,3.3-3.3s-1.5-3.3-3.3-3.3h-10.8c-1.8,0-3.3,1.5-3.3,3.3s1.5,3.3,3.3,3.3Z"/>
      <path class="st0" d="M226.7,154.9c-1.5,0-3,.3-4.3,1h0s0,0,0,0c-1.5-4.1-5.4-6.8-9.8-6.8s-2.4.2-3.6.7h0c5.6-6.3,8.7-14.4,8.7-22.7s-3.4-17.1-9.6-23.5c-6.2-6.3-14.4-9.9-23.2-10.1h0v-8h15.8c3.8,0,6.9-3.1,6.9-6.9V27.2c0-1.8-.7-3.6-2-4.9l-10.3-10.3c-1.3-1.3-3-2-4.9-2h-35.3c-3.8,0-6.9,3.1-6.9,6.9v13.9h-42c-1.8,0-3.3,1.5-3.3,3.3s1.5,3.3,3.3,3.3h42v17h-61.3v-17h3.5c1.8,0,3.3-1.5,3.3-3.3s-1.5-3.3-3.3-3.3h-26.5c-4.3,0-7.8,3.5-7.8,7.8v71.2h-.1c-1.9-.5-3.9-.7-5.8-.7-13.6,0-24.7,11.1-24.7,24.7v18.4h-4.6c-4.3,0-7.8,3.5-7.8,7.8v14.4c0,1.8,1.5,3.3,3.3,3.3s3.3-1.5,3.3-3.3v-14.4c0-.7.5-1.2,1.2-1.2h58.6c.7,0,1.2.5,1.2,1.2v46.1c0,.7-.5,1.2-1.2,1.2H20.7c-.7,0-1.2-.5-1.2-1.2v-16c0-1.8-1.5-3.3-3.3-3.3s-3.3,1.5-3.3,3.3v16c0,4.3,3.5,7.8,7.8,7.8h58.6c4.3,0,7.8-3.5,7.8-7.8v-12.2h65.8l4.6,5c.6.7,1.5,1.1,2.4,1.1s1.6-.3,2.2-.8c.6-.6,1-1.4,1.1-2.3,0-.9-.3-1.7-.8-2.4l-10.3-11.4s0,0-.1-.1c-.3-.3-.3-.8,0-1.1,1.3-1.3,3-2,4.9-2s3.5.7,4.9,2l6.1,6.1c1.3,1.3,2.9,2.1,4.6,2.2.2,0,.4,0,.6,0,1.9,0,3.6-.7,5-1.9,1.5-1.4,2.4-3.4,2.4-5.4v-50.7c0-2.1,1.7-3.8,3.8-3.8s3.8,1.7,3.8,3.8v27.2c0,1.8,1.5,3.3,3.3,3.3s3.3-1.5,3.3-3.3v-6.1c0-2.1,1.7-3.8,3.8-3.8s3.8,1.7,3.8,3.8v6.1c0,1.8,1.5,3.3,3.3,3.3s3.3-1.5,3.3-3.3,1.7-3.8,3.8-3.8,3.8,1.7,3.8,3.8v5.9c0,1.8,1.5,3.3,3.3,3.3s3.3-1.5,3.3-3.3,1.7-3.8,3.8-3.8,3.8,1.7,3.8,3.8v36.3c0,6.5-3.2,12.6-8.6,16.3-3.1,2.2-5,5.7-5,9.6v4.6c0,.7-.5,1.2-1.2,1.2h-27.7c-.7,0-1.2-.5-1.2-1.2v-2.7c0-5-1.9-9.9-5.2-13.6l-8.7-9.6c-.6-.7-1.5-1.1-2.4-1.1s-1.6.3-2.2.8c-.6.6-1,1.4-1.1,2.3,0,.9.3,1.7.8,2.4l8.7,9.6c2.3,2.5,3.5,5.8,3.5,9.2v2.7c0,4.3,3.5,7.8,7.8,7.8h27.7c4.3,0,7.8-3.5,7.8-7.8v-4.6c0-1.7.8-3.3,2.2-4.2,7.2-4.9,11.5-13,11.5-21.7v-36.3c0-5.7-4.6-10.4-10.4-10.4ZM55.9,152.3h-24.1v-18.4c0-10,8.1-18.2,18.2-18.2s4,.3,5.9,1h0v35.6h0ZM154.5,17c0-.2.1-.3.3-.3h35.3s.2,0,.2,0l10.3,10.3s0,.1,0,.2v51.3c0,.2-.1.3-.3.3h-45.6c-.2,0-.3-.1-.3-.3,0,0,0-61.6,0-61.6ZM62.5,38.7c0-.7.6-1.3,1.3-1.3h16.3v17h-17.6v-15.7h0ZM173.7,182.8c0,.3-.2.5-.3.6-.1,0-.3.2-.5.2h0c-.2,0-.4-.1-.6-.3l-6.1-6.1c-2.5-2.5-5.9-3.9-9.5-3.9h0c-3.6,0-7,1.4-9.5,4-2.6,2.7-2.8,7-.3,9.9h.1c0,.1-59.9.1-59.9.1v-23.1h45.3c1.8,0,3.3-1.5,3.3-3.3s-1.5-3.3-3.3-3.3h-45.6c-1.1-3.3-4-5.4-7.4-5.4h-16.8v-31.6h.2c3.5,3.6,5.5,8.2,5.5,13.1s1.5,3.3,3.3,3.3,3.3-1.5,3.3-3.3c0-8.7-4.7-16.8-12.2-21.3h0v-51.6h85.4v17.6c0,3.8,3.1,6.9,6.9,6.9h23.3v8.5h0c-13.4,2.4-23.9,12.5-26.9,25.8h0c0,0-1,0-1,0v-15.7c0-1.8-1.5-3.3-3.3-3.3s-3.3,1.5-3.3,3.3v15.7h-11.1v-41.8c0-1.8-1.5-3.3-3.3-3.3s-3.3,1.5-3.3,3.3v41.8h-11.1v-22.2c0-1.8-1.5-3.3-3.3-3.3s-3.3,1.5-3.3,3.3v22.2h-11.1v-28.8c0-1.8-1.5-3.3-3.3-3.3s-3.3,1.5-3.3,3.3v28.8h-7.1c-1.8,0-3.3,1.5-3.3,3.3s1.5,3.3,3.3,3.3h66.9v.6c0,4.1.7,8.1,2.2,11.9h0c0,.1-69.2.1-69.2.1-1.8,0-3.3,1.5-3.3,3.3s1.5,3.3,3.3,3.3h72.6c.6.9,1.2,1.7,1.8,2.4,4.1,5.2,9.7,9,16,11h0v23.9h0ZM184.1,121.8c-5.7,0-10.4,4.6-10.4,10.4h0c0,.1-.2.2-.2.2-.8-1.6-1.3-3.5-1.3-5.4,0-6.4,5.2-11.6,11.6-11.6s11.6,5.2,11.6,11.6-.3,3-.9,4.4h-.2c-.4-5.4-4.9-9.7-10.3-9.7h0ZM204.2,144.7h0c0,0,0,0,0,0-1.7-1.2-3.8-1.8-5.8-1.8s-2.5.2-3.7.7h-.1s0-1.9,0-1.9h0c4.7-3.5,7.6-9,7.6-14.8,0-10-8.2-18.2-18.2-18.2s-18.2,8.2-18.2,18.2,3,11.7,8,15.1h0v10h-.1c-10.2-4.2-16.8-14-16.8-25s12.1-27,27-27,27,12.1,27,27-2.4,12.8-6.7,17.8h0Z"/>
    </g>
  </g>
</svg>