<?xml version="1.0" encoding="UTF-8"?>
<svg id="Layer_2" xmlns="http://www.w3.org/2000/svg" version="1.1" viewBox="0 0 250 250">
  <!-- Generator: Adobe Illustrator 29.2.1, SVG Export Plug-In . SVG Version: 2.1.0 Build 116)  -->
  <defs>
    <style>
      .st0 {
        fill: #fff;
      }
    </style>
  </defs>
  <g id="Layer_1-2">
    <g id="_1415_Globe_Internet_Office_">
      <g>
        <path class="st0" d="M217.1,217.1c2.6,0,4.6-2.1,4.6-4.6v-9.2c0-2.6-2.1-4.6-4.6-4.6s-4.6,2.1-4.6,4.6v9.2c0,2.6,2.1,4.6,4.6,4.6Z"/>
        <path class="st0" d="M235.5,111.2h-24.1c8.4-53.3-32.7-101.3-86.4-101.3S30.2,58,38.6,111.2H14.5c-2.6,0-4.6,2.1-4.6,4.6v119.7c0,2.6,2.1,4.6,4.6,4.6h221.1c2.6,0,4.6-2.1,4.6-4.6v-119.7c0-2.6-2.1-4.6-4.6-4.6ZM66.5,45.3c5.6,3.7,11.9,6.6,18.3,8.8-3.4,11.7-5.4,24.9-5.8,38.6h-32.2c1-17.6,7.9-34.3,19.7-47.5h0ZM183.5,45.3c11.8,13.2,18.7,29.8,19.7,47.5h-32.2c-.4-13.7-2.4-26.9-5.8-38.6,6.4-2.2,12.7-5.2,18.3-8.8h0ZM183.5,149.4c-4.9-3.2-11.1-6.3-18.3-8.8,3.4-11.7,5.4-24.9,5.8-38.6h32.2c-1,17-7.5,33.8-19.7,47.5h0ZM87.8,149.4c3,7.9,7.2,15.9,12.6,22.4-9.9-3.3-19.2-8.6-27.2-15.6,4.6-2.8,9.7-5,14.6-6.7h0ZM129.6,134.3v-32.3h32.2c-.4,13-2.3,25.3-5.5,36-8.4-2.1-16.9-3.3-26.7-3.7h0ZM129.6,92.8v-32.3c9.1-.3,17.9-1.5,26.7-3.7,3.1,10.7,5.1,23,5.5,36h-32.2ZM129.6,51.2v-31.5c9.4,2.6,17.9,13.2,23.7,28.3-7,1.7-15.2,2.9-23.7,3.3ZM120.4,51.2c-7.8-.3-15.9-1.3-23.7-3.3,5.9-15.1,14.3-25.6,23.7-28.3v31.5ZM120.4,60.4v32.3h-32.2c.4-13,2.3-25.3,5.5-36,8.8,2.2,17.9,3.4,26.7,3.7h0ZM120.4,102v32.3c-9.8.3-18.8,1.7-26.7,3.7-3.1-10.7-5.1-23-5.5-36h32.2ZM96.7,146.7c7.8-1.9,16.6-3,23.7-3.3v31.5c-9.4-2.6-17.9-13.2-23.7-28.3h0ZM129.6,143.5c7.3.2,15.7,1.3,23.7,3.3-5.9,15.1-14.3,25.6-23.7,28.3v-31.5ZM162.2,149.4c5.2,1.9,9.8,3.8,14.6,6.7-8,7.1-17.2,12.4-27.2,15.6,5.5-6.5,9.6-14.4,12.6-22.4h0ZM162.2,45.4c-3-7.9-7.2-15.9-12.6-22.4,9.9,3.3,19.2,8.6,27.2,15.6-4.5,2.7-9.4,4.9-14.6,6.7h0ZM87.8,45.4c-4.9-1.7-9.9-3.9-14.6-6.7,8-7.1,17.2-12.4,27.2-15.6-5.4,6.5-9.6,14.4-12.6,22.4h0ZM79,102c.4,13.7,2.4,26.9,5.8,38.6-6.4,2.2-12.6,5.1-18.3,8.8-11.5-12.8-18.6-29.3-19.7-47.5h32.2,0ZM230.9,230.9H19.1v-110.5h21.5c6.7,24.7,23.9,44.5,45.3,55.3h-34.5c-2.6,0-4.6,2.1-4.6,4.6s2.1,4.6,4.6,4.6h147.4c2.6,0,4.6-2.1,4.6-4.6s-2.1-4.6-4.6-4.6h-34.5c21-10.6,38.5-30.2,45.3-55.3h21.5v110.5h0Z"/>
        <path class="st0" d="M32.9,157.2c-2.6,0-4.6,2.1-4.6,4.6v27.6c0,2.6,2.1,4.6,4.6,4.6s4.6-2.1,4.6-4.6v-27.6c0-2.6-2.1-4.6-4.6-4.6Z"/>
        <path class="st0" d="M217.1,152.6c2.6,0,4.6-2.1,4.6-4.6v-9.2c0-2.6-2.1-4.6-4.6-4.6s-4.6,2.1-4.6,4.6v9.2c0,2.6,2.1,4.6,4.6,4.6Z"/>
        <path class="st0" d="M217.1,184.9c2.6,0,4.6-2.1,4.6-4.6v-9.2c0-2.6-2.1-4.6-4.6-4.6s-4.6,2.1-4.6,4.6v9.2c0,2.6,2.1,4.6,4.6,4.6Z"/>
      </g>
    </g>
  </g>
</svg>