<?xml version="1.0" encoding="UTF-8"?>
<svg id="Layer_2" xmlns="http://www.w3.org/2000/svg" version="1.1" viewBox="0 0 250 250">
  <!-- Generator: Adobe Illustrator 29.2.1, SVG Export Plug-In . SVG Version: 2.1.0 Build 116)  -->
  <defs>
    <style>
      .st0 {
        fill: #fff;
      }
    </style>
  </defs>
  <g id="Layer_1-2">
    <g id="icon">
      <path class="st0" d="M196.8,85.6c-.5-1.7-.5-3.5,0-5.2l3.3-12.3c.9-3.5,0-7.2-2.6-9.7l-9-9c-1.3-1.2-2.2-2.8-2.6-4.5l-3.3-12.3c-.9-3.5-3.6-6.2-7.1-7.1l-12.3-3.3c-1.7-.5-3.2-1.4-4.5-2.6l-9-9.1c-1.9-1.9-4.5-2.9-7.1-2.9s-1.7.1-2.6.3l-12.3,3.3c-1.7.4-3.5.4-5.2,0l-12.3-3.3c-.9-.2-1.7-.3-2.6-.3-2.7,0-5.2,1.1-7.1,2.9l-9,9.1c-1.3,1.2-2.8,2.1-4.5,2.6l-12.3,3.3c-3.5.9-6.2,3.6-7.1,7.1l-3.3,12.3c-.4,1.7-1.3,3.3-2.6,4.5l-9,9c-2.5,2.6-3.5,6.2-2.6,9.7l3.3,12.3c.5,1.7.5,3.5,0,5.2l-3.3,12.3c-.9,3.5,0,7.2,2.6,9.7l9,9c1.3,1.2,2.1,2.8,2.6,4.5l3.3,12.3c.9,3.5,3.6,6.2,7.1,7.1l12.3,3.3c1.7.5,3.2,1.4,4.5,2.6l9,9c1.5,1.4,3.3,2.4,5.3,2.8.6.1,1.2.2,1.8.2.9,0,1.7-.1,2.6-.3l3.9-1.1,8.4-2.3c1.7-.4,3.5-.4,5.2,0l8.4,2.3,3.9,1.1c.9.2,1.7.3,2.6.3s1.2,0,1.8-.2c2-.4,3.9-1.3,5.3-2.8l9-9c1.3-1.2,2.8-2.1,4.5-2.6l12.3-3.3c3.5-.9,6.2-3.6,7.1-7.1l3.3-12.3c.4-1.7,1.3-3.2,2.6-4.5l9-9c2.5-2.6,3.5-6.2,2.6-9.7,0,0-3.3-12.3-3.3-12.3ZM188.8,87.8l3.3,12.3c.1.6,0,1.2-.5,1.6l-9,9c-2.3,2.3-3.9,5.2-4.8,8.3l-3.3,12.3c-.2.6-.6,1-1.2,1.2l-12.3,3.3c-3.1.8-6,2.5-8.3,4.7l-9,9c-.3.3-.7.5-1.2.5-.1,0-.3,0-.4,0l-12.3-3.3c-3.1-.8-6.4-.8-9.6,0l-12.3,3.3c-.1,0-.3,0-.4,0-.4,0-.9-.2-1.2-.5l-9-9c-2.3-2.3-5.2-3.9-8.3-4.7l-12.3-3.3c-.6-.2-1-.6-1.2-1.2l-3.3-12.3c-.9-3.1-2.5-6-4.8-8.3l-9-9c-.4-.4-.6-1-.5-1.6l3.3-12.3c.8-3.1.8-6.4,0-9.6l-3.3-12.3c-.1-.6,0-1.2.5-1.6l9-9c2.3-2.3,3.9-5.1,4.8-8.3l3.3-12.3c.2-.6.6-1,1.2-1.2l12.3-3.3c3.1-.9,6-2.5,8.3-4.8l9-9c.3-.3.7-.5,1.2-.5.1,0,.3,0,.4,0l12.3,3.3c3.1.8,6.4.8,9.6,0l12.3-3.3c.1,0,.3,0,.4,0,.4,0,.9.2,1.2.5l9,9c2.3,2.3,5.2,3.9,8.3,4.8l12.3,3.3c.6.1,1.1.6,1.2,1.2l3.3,12.3c.9,3.1,2.5,6,4.8,8.3l9,9c.4.4.6,1,.5,1.6l-3.3,12.3c-.8,3.1-.8,6.4,0,9.6h0Z"/>
      <path class="st0" d="M125,68.5l2.8,6.7,2,4.7,5.1.4,7.2.6-5.5,4.7-3.9,3.3,1.2,5,1.7,7-6.2-3.8-4.4-2.7-4.4,2.7-6.2,3.8,1.7-7,1.2-5-3.9-3.3-5.5-4.7,7.2-.6,5.1-.4,2-4.7s2.8-6.7,2.8-6.7ZM125,50.1c-.9,0-1.6.5-1.9,1.3l-8.6,20.5-22.2,1.8c-1.2,0-2,1.1-1.9,2.3,0,.6.3,1.1.7,1.4l16.9,14.5-5.1,21.7c-.3,1.1.4,2.3,1.6,2.5.5.1,1.1,0,1.6-.2l19-11.6,19,11.6c1,.6,2.3.3,2.9-.7.3-.5.4-1,.2-1.6l-5.1-21.7,16.9-14.5c.9-.8,1-2.1.2-3-.4-.4-.9-.7-1.4-.7l-22.2-1.8-8.6-20.5c-.3-.8-1.1-1.3-1.9-1.3h0Z"/>
      <path class="st0" d="M125,37c25.5,0,46.1,20.7,46.1,46.1s-20.7,46.1-46.1,46.1-46.1-20.7-46.1-46.1c0-25.5,20.7-46.1,46.1-46.1M125,28.6c-30.1,0-54.5,24.4-54.5,54.5s24.4,54.5,54.5,54.5,54.5-24.4,54.5-54.5-24.4-54.5-54.5-54.5Z"/>
      <path class="st0" d="M150.2,209c-5.1-10.5-7.7-21.9-7.7-33.5,0-5.8.6-11.5,1.9-17.1,1.1-4.9,2.7-9.6,4.8-14.1l-5.4,5.4c-.3.3-.7.5-1.2.5-.1,0-.3,0-.4,0l-12.3-3.3c-3.1-.8-6.4-.8-9.6,0l-12.3,3.3c-.1,0-.3,0-.4,0-.4,0-.9-.2-1.2-.5l-5.4-5.4c2.1,4.5,3.7,9.3,4.8,14.1,1.3,5.6,1.9,11.3,1.9,17.1,0,11.6-2.6,23.1-7.7,33.5h50.3ZM137.8,150.2c-.7,2.2-1.3,4.5-1.8,6.8-3.2,14.4-2.6,29.4,1.8,43.5h-25.6c4.3-14.1,4.9-29.1,1.8-43.5-.5-2.3-1.1-4.6-1.8-6.8,0,0,25.6,0,25.6,0Z"/>
      <path class="st0" d="M175.3,225.7v8.4h-100.6v-8.4h100.6ZM175.3,217.3h-100.6c-4.6,0-8.4,3.8-8.4,8.4v16.8h117.4v-16.8c0-4.6-3.8-8.4-8.4-8.4h0Z"/>
      <path class="st0" d="M154.4,209v8.4h-58.7v-8.4h58.7ZM154.4,200.6h-58.7c-4.6,0-8.4,3.8-8.4,8.4v16.8h75.5v-16.8c0-4.6-3.8-8.4-8.4-8.4Z"/>
    </g>
  </g>
</svg>