<?xml version="1.0" encoding="UTF-8"?>
<svg id="Layer_2" xmlns="http://www.w3.org/2000/svg" version="1.1" viewBox="0 0 250 250">
  <!-- Generator: Adobe Illustrator 29.2.1, SVG Export Plug-In . SVG Version: 2.1.0 Build 116)  -->
  <defs>
    <style>
      .st0 {
        fill: #fff;
      }
    </style>
  </defs>
  <g id="Layer_1-2">
    <g>
      <path class="st0" d="M125,87.7c-30.8,1-30.8,45.7,0,46.7,30.8-1,30.8-45.7,0-46.7ZM125,125.6c-8.1,0-14.5-6.7-14.4-14.7,0-7.9,6.5-14.3,14.4-14.4,8.1,0,14.5,6.7,14.4,14.7,0,7.9-6.5,14.3-14.4,14.4Z"/>
      <path class="st0" d="M230.4,140.8c-7.6-2.4-15.8.6-20.1,7.3l-17.4-5.6c3-11.4,2.9-23.4,0-34.9l17.5-5.7c5.3,8.1,16.1,10.4,24.2,5.1,6.6-4.3,9.5-12.5,7.2-20-6.3-19.3-35.4-13.8-34.1,6.5l-17.4,5.7c-4.3-11-11.4-20.7-20.5-28.2l10.8-14.8c7.4,3,15.9.5,20.6-6,13.1-18.9-14.3-39-28.4-20.6-4.7,6.5-4.4,15.3.7,21.4l-10.8,14.9c-10-6.3-21.4-10-33.1-10.8v-18.4c9.4-2.4,15-11.9,12.6-21.3-2.4-9.4-11.9-15-21.3-12.6-9.4,2.4-15,11.9-12.6,21.3,1.6,6.1,6.4,11,12.6,12.6v18.4c-11.8.7-23.2,4.4-33.1,10.8l-10.8-14.9c6.1-7.5,5.1-18.5-2.4-24.6-7.5-6.1-18.5-5.1-24.6,2.4s-5.1,18.5,2.4,24.6c4.9,4,11.6,5.1,17.5,2.8l10.8,14.8c-9.1,7.6-16.1,17.2-20.5,28.2l-17.4-5.7c.6-9.7-6.8-18-16.4-18.5-9.6-.6-17.9,6.8-18.5,16.4-.6,9.7,6.8,18,16.4,18.5,6.4.4,12.4-2.7,15.8-8.1l17.5,5.7c-3,11.4-3,23.4,0,34.9l-17.4,5.6c-4.3-6.7-12.6-9.7-20.1-7.3-21.8,7.7-11.3,39.9,10.8,33.3,7.6-2.5,12.5-9.8,12-17.7l17.4-5.6c4.3,11,11.4,20.7,20.5,28.2l-10.8,14.8c-9-3.6-19.1.9-22.7,9.9-3.6,9,.9,19.1,9.9,22.7,9,3.6,19.1-.9,22.7-9.9,2.3-5.9,1.3-12.6-2.8-17.5l10.8-14.8c10,6.4,21.4,10.1,33.2,10.8v18.3c-9.4,2.4-15,12-12.6,21.3,2.4,9.4,12,15,21.3,12.6,9.4-2.4,15-12,12.6-21.3-1.6-6.2-6.4-11-12.6-12.6v-18.3c11.8-.7,23.2-4.4,33.2-10.8l10.8,14.8c-6.1,7.4-5.1,18.5,2.4,24.6,7.4,6.1,18.5,5.1,24.6-2.4,6.1-7.4,5.1-18.5-2.4-24.6-4.9-4.1-11.6-5.1-17.5-2.8l-10.8-14.8c9.1-7.5,16.2-17.2,20.5-28.2l17.4,5.6c-.6,9.6,6.8,17.9,16.4,18.5,9.7.6,17.9-6.8,18.5-16.4.5-8-4.5-15.3-12.1-17.7h0ZM217.2,88.5c2.3-4.3,7.6-5.9,11.8-3.7,4.2,2.2,5.9,7.4,3.8,11.6-2.3,4.3-7.6,5.9-11.8,3.7-4.2-2.2-5.9-7.4-3.8-11.6ZM179.8,34.8c2.9-3.9,8.4-4.7,12.3-1.7,3.8,2.8,4.6,8.2,1.9,12.1-2.9,3.9-8.4,4.7-12.3,1.7-3.8-2.8-4.6-8.2-1.9-12.1ZM56.2,45.1c-2.8-3.9-1.8-9.4,2.1-12.2,3.9-2.7,9.2-1.9,12.1,1.9,2.8,3.9,1.8,9.4-2.1,12.2-3.9,2.7-9.2,1.9-12.1-1.9ZM22.4,100.8c-4.6-1.6-7-6.5-5.5-11.1,1.5-4.5,6.4-6.9,10.9-5.5,4.6,1.6,7,6.5,5.5,11.1-1.5,4.5-6.4,6.9-10.9,5.5ZM32.9,161.4c-2.3,4.3-7.6,5.9-11.8,3.7-4.2-2.2-5.9-7.4-3.8-11.6,2.3-4.3,7.6-5.9,11.8-3.7,4.2,2.2,5.9,7.4,3.8,11.6ZM70.4,215.2c-2.9,3.9-8.4,4.7-12.3,1.7-3.8-2.8-4.6-8.2-1.9-12.1,2.9-3.9,8.4-4.7,12.3-1.7,3.8,2.8,4.6,8.2,1.9,12.1ZM193.9,204.9c2.8,3.9,1.8,9.4-2.1,12.2-3.9,2.7-9.2,1.9-12.1-1.9-2.8-3.9-1.8-9.4,2.1-12.2,3.9-2.7,9.2-1.9,12.1,1.9h0ZM116.3,19.9c0-4.8,4.1-8.7,8.9-8.6,4.7,0,8.6,3.9,8.6,8.6,0,4.8-4.1,8.7-8.9,8.6-4.7,0-8.6-3.9-8.6-8.6ZM133.8,230.1c0,4.8-4.1,8.7-8.9,8.6-4.7,0-8.6-3.9-8.6-8.6,0-4.8,4.1-8.7,8.9-8.6,4.7,0,8.6,3.9,8.6,8.6ZM158.6,176.3c-18,11.7-40.7,13.2-60.1,4-2.4-1.2-4.7-2.5-7-4v-4.6c0-12.2,9.9-22.1,22.1-22.1h22.9c14.5.1,23.6,12.8,22.1,26.7ZM167.2,169.4c-1.2-16.1-14.6-28.6-30.7-28.6h-22.9c-16.1,0-29.5,12.5-30.7,28.6-40-37.7-12.9-105.8,42.2-105.7,55.1,0,82.2,68.1,42.2,105.7h0ZM222.3,165.8c-4.6-1.6-7-6.5-5.5-11.1,1.2-3.5,4.5-5.9,8.2-6,4.8,0,8.8,3.8,8.9,8.7s-3.8,8.8-8.7,8.9c-1,0-2-.1-2.9-.5h0Z"/>
    </g>
  </g>
</svg>