<?xml version="1.0" encoding="UTF-8"?>
<svg id="Layer_2" xmlns="http://www.w3.org/2000/svg" version="1.1" viewBox="0 0 250 250">
  <!-- Generator: Adobe Illustrator 29.2.1, SVG Export Plug-In . SVG Version: 2.1.0 Build 116)  -->
  <defs>
    <style>
      .st0 {
        fill: #fff;
      }
    </style>
  </defs>
  <g id="Layer_1-2">
    <path class="st0" d="M195.5,101.5c25.9,0,47-21.1,47-47S221.4,7.5,195.5,7.5s-35,11.1-42.5,27.2l-12.6-4.6c.1-1,.3-1.9.3-2.9,0-10.8-8.8-19.6-19.6-19.6s-19.6,8.8-19.6,19.6,8.8,19.6,19.6,19.6,13.1-3.7,16.6-9.3l12.6,4.6c-1.1,4-1.7,8.2-1.7,12.5s.9,10.1,2.4,14.7l-43.1,18.3c-7.9-14.9-23.6-25.1-41.6-25.1s-11.4,1.1-16.6,3.1l-10.8-22.8c4.7-3.6,7.8-9.2,7.8-15.6,0-10.8-8.8-19.6-19.6-19.6S7.5,16.3,7.5,27.1s8.8,19.6,19.6,19.6,3.2-.3,4.7-.6l10.8,22.7c-13.9,8.2-23.4,23.3-23.4,40.6s8.3,30.6,20.9,39l-7.2,12.9c-1.9-.6-3.8-1-5.9-1-10.8,0-19.6,8.8-19.6,19.6s8.8,19.6,19.6,19.6,19.6-8.8,19.6-19.6-2.7-11.2-6.9-14.8l7.2-12.9c5.9,2.7,12.4,4.2,19.3,4.2,10.7,0,20.6-3.7,28.6-9.8l15.4,17c-7.8,8.4-12.6,19.6-12.6,32s.2,4.7.6,7l-18.1,4.3c-3.1-6.7-9.9-11.3-17.7-11.3s-19.6,8.8-19.6,19.6,8.8,19.6,19.6,19.6,19.6-8.8,19.6-19.6,0-.4,0-.6l18.1-4.3c6.2,18.7,23.8,32.3,44.6,32.3s47-21.1,47-47-2-15.6-5.6-22.2l23-15c3.6,3.6,8.5,5.8,13.9,5.8,10.8,0,19.6-8.8,19.6-19.6s-8.8-19.6-19.6-19.6-19.6,8.8-19.6,19.6.5,4.9,1.4,7.2l-23.1,15c-4.6-5.9-10.6-10.7-17.5-13.9l19.1-53c3.9,1.1,8,1.7,12.2,1.7h0ZM121,38.8c-6.5,0-11.8-5.3-11.8-11.8s5.3-11.8,11.8-11.8,11.8,5.3,11.8,11.8-5.3,11.8-11.8,11.8ZM15.3,27.1c0-6.5,5.3-11.8,11.8-11.8s11.8,5.3,11.8,11.8-5.3,11.8-11.8,11.8-11.8-5.3-11.8-11.8ZM27.1,191.6c-6.5,0-11.8-5.3-11.8-11.8s5.3-11.8,11.8-11.8,11.8,5.3,11.8,11.8-5.3,11.8-11.8,11.8ZM62.3,226.8c-6.5,0-11.8-5.3-11.8-11.8s5.3-11.8,11.8-11.8,11.8,5.3,11.8,11.8-5.3,11.8-11.8,11.8ZM222.9,132.8c6.5,0,11.8,5.3,11.8,11.8s-5.3,11.8-11.8,11.8-11.8-5.3-11.8-11.8,5.3-11.8,11.8-11.8ZM172.4,86.1c1.7-9.1,9.7-15.9,19.1-15.9h7.8c9.4,0,17.4,6.9,19.1,15.9-6.5,4.7-14.4,7.6-23.1,7.6s-16.6-2.8-23.1-7.6h0ZM195.5,62.3c-6.5,0-11.8-5.3-11.8-11.8s5.3-11.8,11.8-11.8,11.8,5.3,11.8,11.8-5.3,11.8-11.8,11.8ZM195.5,15.3c21.6,0,39.2,17.6,39.2,39.2s-3.6,18.7-9.6,25.6c-2.7-7.2-8.5-13-15.6-15.8,3.5-3.5,5.6-8.4,5.6-13.7,0-10.8-8.8-19.6-19.6-19.6s-19.6,8.8-19.6,19.6,2.2,10.2,5.6,13.7c-7.1,2.8-12.9,8.6-15.6,15.8-6-6.9-9.6-15.8-9.6-25.6,0-21.6,17.6-39.2,39.2-39.2ZM27.1,109.3c0-21.6,17.6-39.2,39.2-39.2s39.2,17.6,39.2,39.2-3.7,18.8-9.7,25.7c-2.7-7.3-8.5-13.1-15.6-15.9,3.5-3.5,5.6-8.4,5.6-13.7,0-10.8-8.8-19.6-19.6-19.6s-19.6,8.8-19.6,19.6,2.2,10.2,5.6,13.7c-7.1,2.8-12.8,8.6-15.6,15.8-5.9-6.9-9.5-15.8-9.5-25.5h0ZM54.4,105.4c0-6.5,5.3-11.8,11.8-11.8s11.8,5.3,11.8,11.8-5.3,11.8-11.8,11.8-11.8-5.3-11.8-11.8ZM43.1,140.9c1.8-9,9.7-15.9,19.1-15.9h7.8c9.4,0,17.4,6.9,19.2,16-6.5,4.7-14.4,7.5-23,7.5s-16.6-2.9-23.1-7.6ZM121.4,227c1.8-9,9.7-15.9,19.1-15.9h7.8c9.4,0,17.4,6.9,19.2,16-6.5,4.7-14.4,7.5-23,7.5s-16.6-2.9-23.1-7.6ZM144.5,203.3c-6.5,0-11.8-5.3-11.8-11.8s5.3-11.8,11.8-11.8,11.8,5.3,11.8,11.8-5.3,11.8-11.8,11.8ZM183.7,195.5c0,9.8-3.7,18.8-9.7,25.7-2.7-7.3-8.5-13.1-15.6-15.9,3.5-3.5,5.6-8.4,5.6-13.7,0-10.8-8.8-19.6-19.6-19.6s-19.6,8.8-19.6,19.6,2.2,10.2,5.6,13.7c-7.1,2.8-12.8,8.6-15.6,15.8-5.9-6.9-9.5-15.8-9.5-25.5,0-21.6,17.6-39.2,39.2-39.2s39.2,17.6,39.2,39.2h0ZM156.8,150.2c-3.9-1.1-8-1.7-12.2-1.7-10.7,0-20.6,3.7-28.6,9.8l-15.4-17c7.8-8.4,12.6-19.6,12.6-32s-.9-10.1-2.4-14.7l43.1-18.3c4.8,9.1,12.6,16.4,22,20.8l-19.1,53h0Z"/>
  </g>
</svg>