<?xml version="1.0" encoding="UTF-8"?>
<svg id="Layer_1" data-name="Layer 1" xmlns="http://www.w3.org/2000/svg" xmlns:xlink="http://www.w3.org/1999/xlink" viewBox="0 0 250 250">
  <defs>
    <style>
      .cls-1 {
        fill: #c93733;
      }

      .cls-2 {
        fill: url(#New_Pattern_Swatch_1);
      }

      .cls-3 {
        fill: url(#New_Pattern_Swatch_1-3);
      }

      .cls-4 {
        fill: url(#New_Pattern_Swatch_1-8);
      }

      .cls-5 {
        fill: none;
      }

      .cls-6 {
        fill: url(#New_Pattern_Swatch_1-5);
      }

      .cls-7 {
        fill: url(#New_Pattern_Swatch_1-2);
      }

      .cls-8 {
        fill: url(#New_Pattern_Swatch_1-6);
      }

      .cls-9 {
        fill: url(#New_Pattern_Swatch_1-7);
      }

      .cls-10 {
        fill: url(#New_Pattern_Swatch_1-4);
      }
    </style>
    <pattern id="New_Pattern_Swatch_1" data-name="New Pattern Swatch 1" x="0" y="0" width="88.4" height="77.94" patternTransform="translate(-6960.34 -6119.23) scale(.31)" patternUnits="userSpaceOnUse" viewBox="0 0 88.4 77.94">
      <g>
        <rect class="cls-5" y="0" width="88.4" height="77.94"/>
        <rect class="cls-1" x="0" y="0" width="88.4" height="77.94"/>
      </g>
    </pattern>
    <pattern id="New_Pattern_Swatch_1-2" data-name="New Pattern Swatch 1" patternTransform="translate(-4549.88 -9977.12) scale(.62 -.2)" xlink:href="#New_Pattern_Swatch_1"/>
    <pattern id="New_Pattern_Swatch_1-3" data-name="New Pattern Swatch 1" patternTransform="translate(-5282.54 -9432.42) scale(.51 -.13)" xlink:href="#New_Pattern_Swatch_1"/>
    <pattern id="New_Pattern_Swatch_1-4" data-name="New Pattern Swatch 1" patternTransform="translate(-5089.14 -9465.25) scale(.54 -.13)" xlink:href="#New_Pattern_Swatch_1"/>
    <pattern id="New_Pattern_Swatch_1-5" data-name="New Pattern Swatch 1" patternTransform="translate(-5089.14 -9465.25) scale(.54 -.13)" xlink:href="#New_Pattern_Swatch_1"/>
    <pattern id="New_Pattern_Swatch_1-6" data-name="New Pattern Swatch 1" patternTransform="translate(-5089.14 -9465.25) scale(.54 -.13)" xlink:href="#New_Pattern_Swatch_1"/>
    <pattern id="New_Pattern_Swatch_1-7" data-name="New Pattern Swatch 1" patternTransform="translate(-13915.58 -9465.14) rotate(-180) scale(.55 .13)" xlink:href="#New_Pattern_Swatch_1"/>
    <pattern id="New_Pattern_Swatch_1-8" data-name="New Pattern Swatch 1" patternTransform="translate(-16590.25 -9943.6) rotate(-180) scale(.87 .2)" xlink:href="#New_Pattern_Swatch_1"/>
  </defs>
  <g>
    <g>
      <path class="cls-2" d="M121.71,87.48s.07,0,.1,0c1.77.04,3.56.05,5.35,0h-5.45ZM121.71,87.48s.07,0,.1,0c1.77.04,3.56.05,5.35,0h-5.45ZM121.71,87.48s.07,0,.1,0c1.77.04,3.56.05,5.35,0h-5.45ZM121.71,87.48s.07,0,.1,0c1.77.04,3.56.05,5.35,0h-5.45ZM121.71,87.48s.07,0,.1,0c1.77.04,3.56.05,5.35,0h-5.45Z"/>
      <path class="cls-2" d="M126.52,72.79c-.69,0-1.38-.01-2.07-.01.05-.02.11-.04.16-.05.06-.02.11-.03.16-.04.02-.01.03-.01.05-.01.03,0,.06,0,.09-.02.04-.01.09-.02.14-.02h.01s.07-.01.11-.01c.03-.01.06-.01.09-.01.02,0,.04,0,.07,0,.07-.01.14-.01.22-.01.06,0,.12.01.18.01.02,0,.05,0,.08,0,.05.01.11.01.16.02.07.01.14.03.2.04.07.02.14.03.2.05.05.02.1.03.15.06Z"/>
    </g>
    <g>
      <path class="cls-2" d="M121.71,87.48s.07,0,.1,0c1.77.04,3.56.05,5.35,0h-5.45ZM121.71,87.48s.07,0,.1,0c1.77.04,3.56.05,5.35,0h-5.45ZM121.71,87.48s.07,0,.1,0c1.77.04,3.56.05,5.35,0h-5.45ZM121.71,87.48s.07,0,.1,0c1.77.04,3.56.05,5.35,0h-5.45ZM121.71,87.48s.07,0,.1,0c1.77.04,3.56.05,5.35,0h-5.45Z"/>
      <path class="cls-2" d="M126.52,72.79c-.69,0-1.38-.01-2.07-.01.05-.02.11-.04.16-.05.06-.02.11-.03.16-.04.02-.01.03-.01.05-.01.03,0,.06,0,.09-.02.04-.01.09-.02.14-.02h.01s.07-.01.11-.01c.03-.01.06-.01.09-.01.02,0,.04,0,.07,0,.07-.01.14-.01.22-.01.06,0,.12.01.18.01.02,0,.05,0,.08,0,.05.01.11.01.16.02.07.01.14.03.2.04.07.02.14.03.2.05.05.02.1.03.15.06Z"/>
    </g>
  </g>
  <path class="cls-7" d="M115.79,87.48h-1.54v-.03c.51.01,1.03.02,1.54.03Z"/>
  <path class="cls-3" d="M82.49,166.46c.27.04.55.04.85,0h-.85Z"/>
  <path class="cls-10" d="M83.59,166.43v.03h-.25c.08,0,.17-.01.25-.03Z"/>
  <rect class="cls-6" x="87.61" y="166.43" width="9.29" height=".03"/>
  <path class="cls-8" d="M105.46,166.46h-4.53v-.03h4.49s.03.02.04.03Z"/>
  <path class="cls-9" d="M167.88,162.54c-.41.02-.78.07-1,0h1Z"/>
  <path class="cls-4" d="M225.24,185.32l-25.08-.06-.15-8.15c0-.31-1.09-1.39-1.4-1.39h-5.72v-21.98h4.49c.72,0,2.94-2.55,2.64-3.58l-24.45-65.65c-1.06-8.05,3.15-11.99,5.48-18.93.39-1.18.86-1.9.14-3.1-1.83-3.06-5.42-.01-7.6.9-2.41,1-4.87,1.89-7.33,2.73-.2-1.56.75-4.24-1.23-4.82-3.27-.97-2.38,3.85-2.53,5.71l-9.25,1.28v-5.42c0-1.15-2.53-2.82-3.64-.55-.96,1.99.41,3.66-.23,5.66-.28.6-2.61.61-3.39.64-1.9.07-3.84-.09-5.74-.02-.28-1.57.05-5.73-.78-6.81-1.1-1.42-3.25-.19-3.25,1.08v5.42c-2.58.13-5.64.63-8.22.33-.45-.06-.79-.04-1.06-.48v-5.27c0-.45-1.11-1.83-1.71-1.88-.69-.05-2.01.98-2.01,1.57v5.73l-9.29.31v-5.42c0-.62-1.29-2.21-2.01-2.21-.83-.01-2.01,1.89-2.01,2.52v4.65c0,.66-1.14.2-1.39.23-.63.05-1.18.22-1.85.25-1.87.06-4.47.21-6.05-.48v-5.58c0-1.81-3.72-1.81-3.72,0v5.73l-8.99-1.07c-.89-.63.56-4.22-1.2-5.61-2.67-2.11-3.27,2.66-2.82,4.51-.24.25-5.72-2.01-6.48-2.33-1.43-.6-4.2-2.42-5.45-2.61-1.86-.26-3.81,1.45-3.34,3.33,1.66,6.63,6.85,12.54,5.34,20.01-7.59,22.11-16.61,43.8-23.83,65.97-.24.9,1.77,3.26,2.34,3.26h5.42v21.98h-6.35c-.16,0-1.39.96-1.39,1.09v8.05c-.57.55-2.03.44-2.92.47-7.43.23-14.88-.2-22.31,0-2.33.99-1.56,3.74.9,3.72h198.82c2.71-.36,2.01-3.73.6-3.73ZM182.98,115.65h-43.66l-1.24-7.74h41.96l2.94,7.74ZM109.6,144.45c-.05-.43.04-.84.13-1.26,1.15-4.99,11.21-10.04,15.76-11.68,3.52,1.78,7.52,3.61,10.57,6.13,1.94,1.61,4.51,4.15,4.5,6.81h-30.96ZM140.56,148.16v15.18l-4.05-3.54c-8.76-6.2-20.1-4.02-26.91,3.85v-15.49h30.96ZM130.38,87.48l.89,4.95h-4.33c.66-4.55-4.53-4.65-3.72,0h-4.33c-.03-.81.17-3.96.89-4.95h10.6ZM124.3,77.26c3.2-2.15,4.92,3.73,4.18,6.19h-6.19c-.08-2.61-.39-4.58,2.01-6.19ZM131.91,96.28l1.53,7.61h-6.5c.75-4.36-4.57-4.6-3.72,0h-6.5l1.53-7.6h13.66ZM171.83,83.45h-39.63v-4.02h39.63v4.02ZM172.14,87.3l2.17,5.13h-39.01l-.93-4.95,37.77-.18ZM118.58,83.45h-40.87v-4.02h40.4c.93.98.29,2.74.47,4.02ZM115.79,87.48l-.93,4.95h-39.32c-.24-.24,2-4.96,2-4.96h38.25ZM115.79,108.68c.12-.29.1-.63.5-.73h17.73l1.28,8.01h-7.68c.03-.29.05-.58.05-.89,0-2.54-1.2-4.6-2.67-4.6s-2.66,2.06-2.66,4.6c0,.31.02.6.05.89h-7.84c-.26-.26,1.03-6.76,1.24-7.28ZM136.21,119.69l2.49,14.85-11.62-6.49c-.74-1.1,1.03-5.34-2.17-5.3-2.83.04-1.03,4.27-1.97,5.47l-11.79,6.63,2.76-15.04,22.3-.12ZM175.86,96.15l2.78,7.74h-41.49l-.93-7.74h39.64ZM130.44,72.78h1.2c.62-.01,1.25-.01,1.87-.02.62,0,1.24-.01,1.86-.02.86,0,1.72-.02,2.57-.03.85-.02,1.7-.04,2.55-.05.38-.01.75-.02,1.13-.03.4-.01.8-.02,1.21-.03.93-.02,1.85-.05,2.76-.08.39-.01.77-.02,1.15-.03.7-.03,1.4-.05,2.1-.08.81-.03,1.62-.06,2.42-.09,6.97-.3,13.65-1.6,20.19-3.96.7-.25,4.82-2.1,5.03-1.93l-3.79,8.89-1.32.39h-39.95c-.05,0-.1,0-.15-.02-.03,0-.06-.01-.09-.02-.09-.02-.18-.04-.28-.08-.05-.02-.11-.04-.17-.07-.24-.1-.49-.24-.73-.41-.06-.04-.13-.08-.19-.13-.05-.04-.11-.07-.16-.11-.13-.1-.26-.2-.4-.3-.08-.07-.17-.14-.25-.2-.03-.02-.06-.05-.09-.07-.05-.04-.1-.08-.15-.12l-.66-.51c-.14-.09-.27-.19-.4-.28-.22-.14-.44-.28-.67-.39-.05-.03-.11-.05-.17-.08-.05-.02-.1-.05-.16-.07-.05-.02-.09-.04-.14-.05t-.01,0c1.3,0,2.59,0,3.89-.01ZM73.37,66.43c6.56,2.5,13.22,4.88,20.28,5.56,1.21.12,2.51-.08,3.73,0,.53.04,1.06.06,1.59.09.37.02.73.04,1.1.06.76.04,1.52.07,2.29.11.76.03,1.53.07,2.31.1,1,.04,2.01.07,3.03.11.41.01.83.03,1.25.04.46.02.93.03,1.39.05h.25c.55.02,1.11.03,1.67.05,1.44.04,2.89.07,4.35.1.43,0,.86.01,1.29.02,2.17.03,4.36.06,6.55.07.05-.02.11-.04.16-.05.06-.02.11-.03.16-.04.02-.01.03-.01.05-.01.03,0,.06,0,.09-.02.04-.01.09-.02.14-.02h.01s.07-.01.11-.01c.03-.01.06-.01.09-.01.02,0,.04,0,.07,0,.07-.01.14-.01.22-.01.06,0,.12.01.18.01.02,0,.05,0,.08,0,.05.01.11.01.16.02.07.01.14.03.2.04.07.02.14.03.2.05.05.02.1.03.15.06-.69,0-1.38-.01-2.07-.01-.07.02-.13.04-.19.06-.05.03-.11.05-.17.08-.06.02-.12.05-.18.07-.07.04-.14.07-.22.11-.1.06-.21.12-.32.18-.06.04-.13.08-.19.13-.04.02-.08.05-.12.08-.07.05-.14.09-.21.14-.02.01-.03.03-.05.04-.09.06-.18.13-.27.2-.1.07-.19.15-.28.22-.01.01-.02.02-.03.02-.07.06-.14.11-.21.17-.09.08-.19.15-.28.23-.11.09-.22.18-.34.27-.11.09-.22.17-.32.25-.06.04-.11.08-.17.12-.13.09-.26.18-.39.26-.07.04-.13.07-.19.1-.04.02-.09.04-.13.06-.04.02-.09.04-.13.06-.03.01-.06.02-.08.03-.06.01-.11.03-.16.04-.05.01-.1.02-.14.03l-42.62-.21-3.69-9.09ZM74.14,96.15l40.46.05-1.82,7.66-41.58.03,2.94-7.74ZM69.81,107.91h42.26l-1.7,7.74h-43.5c.66-2.58,1.53-5.48,2.94-7.74ZM54.17,150.02l2.48-7.43h49.23l-.46,7.43h-51.25ZM105.88,154.67v7.58l-.17.17h-18.06l.27-2.34,17.96-5.41ZM83.65,185.35h-30.18v-6.77h30.18v6.77ZM83.45,162.42h-1.88c-1.09,0-1.96.88-1.96,1.96v.12c0,1.08.87,1.96,1.96,1.96h1.77c.08,0,.17-.01.25-.03v9.29h-21.52l-.47-.46v-20.13c0-.42.07-1.13.47-1.39h32.66l-10.53,3.86c-1.16,1.27-.28,3.28-.75,4.82ZM96.9,185.01s-9.13.07-9.29-.15c.02.02.03.04.03.06-.03-.04-.06-.09-.08-.12.01.01.03.03.05.06v-18.43h9.29v18.58ZM100.93,185.32v-18.89h4.49s.03.02.04.03c.4.26.38.6.44,1.04l.08,17.87-5.05-.05ZM106.67,138.44l-48.57.31c0-.14,3.35-7.71,3.35-7.92h46.29s-.86,7.01-1.07,7.61ZM62.53,127.11l2.95-7.74h44.43l-1.24,7.74h-46.14ZM132.82,184.86l-.47.46h-15.32v-11.92c0-.14.71-1.6.87-1.92,2.36-4.49,8.66-5.47,12.42-2.09.82.74,2.5,3.28,2.5,4.32v11.15ZM140.62,179.81c-.02.44-.06,5.63-.05,5.63h-3.74s0-9.18.01-9.18v-1.62c0-8.45-10.38-13.52-17.54-9.81-3.05,1.57-6.3,6.37-6.3,9.81v1.62h.04v9.18h-3.43c-.05-2.47-.12-4.94-.21-7.4-.08-2.02-.2-3.95.24-5.94.71-3.22,2.46-6.17,4.93-8.36,2.86-2.54,6.6-3.96,10.43-3.96,7.09,0,14.17,5.29,15.33,12.45.3,1.82.37,3.67.35,5.51,0,.69-.03,1.38-.06,2.07ZM139.9,119.44l44.47-.07,2.94,7.74h-46.13l-1.28-7.67ZM141.83,130.73l47.03.1,2.79,8.04-48.39-.21-1.43-7.93ZM144.28,142.59h49.23l2.47,7.43h-51.24l-.47-.02v-7.41ZM162.55,160.08c.08.02.03,2.46.03,2.46h-18.02l-.28-.29v-7.58l18.27,5.41ZM149.85,185.01l-5.57-.15v-18.43h.02v.15h5.55v18.43ZM162.72,185.35l-8.85-.03v-18.74h8.98l-.13,18.77ZM166.04,166.58h3.27c1.08,0,1.96-.88,1.96-1.96v-.12c0-1.08-.88-1.96-1.96-1.96h-1.43c-.41.02-.78.07-1,0,.04.05-.08-.03,0,0,0,0,.37-4.21-.94-5.24l-10.21-3.56,33.05-.11c.04.13.41,21.02.41,21.02-.06.45-.04.8-.48,1.07h-22.43l-.24-9.14ZM196.12,185.08h-29.71v-7.12h29.71v7.12Z"/>
</svg>